<svg width="128" height="128" viewBox="0 0 128 128" fill="none" xmlns="http://www.w3.org/2000/svg">
<g clip-path="url(#clip0_8_278)">
<rect width="128" height="128" fill="white"/>
<circle cx="64" cy="64" r="60" stroke="#787878" stroke-width="8"/>
<path d="M33.5 53.1094C33.4896 52.6719 33.6354 52.3177 33.9375 52.0469C34.25 51.7656 34.6302 51.625 35.0781 51.625C35.5885 51.625 36.0365 51.9167 36.4219 52.5C36.9531 53.2917 37.4271 53.8281 37.8438 54.1094C38.7292 54.6927 40.0156 54.9844 41.7031 54.9844C43.3177 54.9844 44.8177 54.6354 46.2031 53.9375C47.974 53.0417 48.8594 51.7969 48.8594 50.2031C48.8594 48.8906 48.1146 47.8542 46.625 47.0938C45.3646 46.4375 43.8073 46.0833 41.9531 46.0312C40.3073 45.9688 38.9062 45.6094 37.75 44.9531C36.2708 44.1094 35.5312 42.901 35.5312 41.3281C35.5312 39.474 36.5833 37.7812 38.6875 36.25C40.6979 34.8021 42.776 34.0781 44.9219 34.0781C45.9323 34.0781 47.0729 34.25 48.3438 34.5938C50.0312 35.0417 50.875 35.6146 50.875 36.3125C50.875 37.2292 50.4062 37.6875 49.4688 37.6875C49.0521 37.6875 48.3229 37.5781 47.2812 37.3594C46.2396 37.1302 45.4323 37.0208 44.8594 37.0312C43.2344 37.0521 41.8542 37.4531 40.7188 38.2344C39.5521 39.0365 38.9688 40.0104 38.9688 41.1562C38.9688 42.0208 39.7396 42.6302 41.2812 42.9844C41.8542 43.1198 42.9635 43.2448 44.6094 43.3594C46.9948 43.5365 48.8594 44.2865 50.2031 45.6094C51.4323 46.8177 52.0469 48.2917 52.0469 50.0312C52.0469 52.5104 50.901 54.4896 48.6094 55.9688C46.6198 57.25 44.3125 57.8906 41.6875 57.8906C39.7812 57.8906 38.0365 57.526 36.4531 56.7969C34.5156 55.901 33.5312 54.6719 33.5 53.1094Z" fill="#787878"/>
<path d="M93.6094 39.4688C92.9427 39.4688 92.4427 39.0781 92.1094 38.2969C91.8177 37.6302 91.5469 37.224 91.2969 37.0781C91.0781 36.9635 90.5365 36.9062 89.6719 36.9062C88.1615 36.9062 86.4844 38.0625 84.6406 40.375C82.1406 43.4792 80.8906 46.4219 80.8906 49.2031C80.8906 50.5469 81.3229 51.7031 82.1875 52.6719C83.0729 53.6719 84.1406 54.1719 85.3906 54.1719C86.4635 54.1719 87.5417 53.8958 88.625 53.3438C89.2292 53.0312 90.1562 52.4167 91.4062 51.5C92 51.0625 92.4479 50.8438 92.75 50.8438C93.1979 50.8438 93.5729 51.0156 93.875 51.3594C94.1771 51.6927 94.3281 52.0677 94.3281 52.4844C94.3281 52.9531 94.1302 53.3646 93.7344 53.7188C90.9844 56.1562 88.2031 57.375 85.3906 57.375C83.2344 57.375 81.4115 56.5469 79.9219 54.8906C78.4844 53.2865 77.7656 51.3906 77.7656 49.2031C77.7656 45.6719 79.2448 42.0521 82.2031 38.3438C84.6719 35.25 87.1615 33.7031 89.6719 33.7031C90.1823 33.7031 90.6406 33.7292 91.0469 33.7812C91.4531 33.8229 91.8125 33.8958 92.125 34C92.4896 33.4688 92.9635 33.2031 93.5469 33.2031C94.2656 33.2031 94.7188 33.6771 94.9062 34.625C95.0729 35.4688 95.1562 36.5052 95.1562 37.7344C95.1562 38.1615 95.0417 38.5365 94.8125 38.8594C94.5312 39.2656 94.1302 39.4688 93.6094 39.4688Z" fill="#787878"/>
<path d="M33.9992 96.7636C29.2566 91.7061 26.085 86.2331 24.263 82.5358H105.074C100.07 92.866 86.7526 108.856 63.2672 109.537C50.1141 109.918 40.5983 103.801 33.9992 96.7636Z" stroke="#787878" stroke-width="5"/>
</g>
<defs>
<clipPath id="clip0_8_278">
<rect width="128" height="128" fill="white"/>
</clipPath>
</defs>
</svg>
